{
  "accessors": [
    {
      "bufferView": 2,
      "componentType": 5126,
      "count": 5873,
      "max": [
        10.488138198852539,
        5.294410228729248,
        15.927851676940918
      ],
      "min": [
        1.0114630460739136,
        -5.4419159889221191,
        -0.31693801283836365
      ],
      "type": "VEC3"
    },
    {
      "bufferView": 2,
      "byteOffset": 70476,
      "componentType": 5126,
      "count": 5873,
      "max": [
        0.99947410821914673,
        0.99933487176895142,
        0.99991577863693237
      ],
      "min": [
        -0.99993413686752319,
        -0.99933487176895142,
        -0.99921226501464844
      ],
      "type": "VEC3"
    },
    {
      "bufferView": 3,
      "componentType": 5126,
      "count": 5873,
      "max": [
        0.99991577863693237,
        0.85671746730804443,
        0.98337948322296143,
        1
      ],
      "min": [
        -0.93587923049926758,
        -0.97403866052627563,
        -0.99990934133529663,
        1
      ],
      "type": "VEC4"
    },
    {
      "bufferView": 1,
      "componentType": 5126,
      "count": 5873,
      "max": [
        0.99612301588058472,
        0.98988801240921021
      ],
      "min": [
        0.0038769999518990517,
        0.024135999381542206
      ],
      "type": "VEC2"
    },
    {
      "bufferView": 0,
      "componentType": 5125,
      "count": 30864,
      "max": [
        5872
      ],
      "min": [
        0
      ],
      "type": "SCALAR"
    }
  ],
  "asset": {
    "extras": {
      "author": "Amy Jones (https://sketchfab.com/ajones1)",
      "license": "CC-BY-4.0 (http://creativecommons.org/licenses/by/4.0/)",
      "source": "https://sketchfab.com/3d-models/flower-colour-test-94715a25b7484592accaa2c9ff88370c",
      "title": "Flower Colour Test"
    },
    "generator": "Sketchfab-7.0.0",
    "version": "2.0"
  },
  "bufferViews": [
    {
      "buffer": 0,
      "byteLength": 123456,
      "byteOffset": 0,
      "name": "floatBufferViews",
      "target": 34963
    },
    {
      "buffer": 0,
      "byteLength": 46984,
      "byteOffset": 123456,
      "byteStride": 8,
      "name": "floatBufferViews",
      "target": 34962
    },
    {
      "buffer": 0,
      "byteLength": 140952,
      "byteOffset": 170440,
      "byteStride": 12,
      "name": "floatBufferViews",
      "target": 34962
    },
    {
      "buffer": 0,
      "byteLength": 93968,
      "byteOffset": 311392,
      "byteStride": 16,
      "name": "floatBufferViews",
      "target": 34962
    }
  ],
  "buffers": [
    {
      "byteLength": 405360,
      "uri": "scene.bin"
    }
  ],
  "images": [
    {
      "uri": "textures/blinn3SG_baseColor.png"
    }
  ],
  "materials": [
    {
      "alphaMode": "BLEND",
      "doubleSided": true,
      "name": "blinn3SG",
      "pbrMetallicRoughness": {
        "baseColorFactor": [
          1,
          1,
          1,
          1
        ],
        "baseColorTexture": {
          "index": 0,
          "texCoord": 0
        },
        "metallicFactor": 0,
        "roughnessFactor": 1
      }
    }
  ],
  "meshes": [
    {
      "primitives": [
        {
          "attributes": {
            "NORMAL": 1,
            "POSITION": 0,
            "TANGENT": 2,
            "TEXCOORD_0": 3
          },
          "indices": 4,
          "material": 0,
          "mode": 4
        }
      ]
    }
  ],
  "nodes": [
    {
      "children": [
        1
      ],
      "name": "RootNode (gltf orientation matrix)",
      "rotation": [
        -0.70710678118654746,
        -0,
        -0,
        0.70710678118654757
      ]
    },
    {
      "children": [
        2
      ],
      "name": "RootNode (model correction matrix)"
    },
    {
      "children": [
        3
      ],
      "name": "flower colour test.obj.cleaner.materialmerger.gles"
    },
    {
      "mesh": 0,
      "name": ""
    }
  ],
  "samplers": [
    {
      "magFilter": 9729,
      "minFilter": 9987,
      "wrapS": 10497,
      "wrapT": 10497
    }
  ],
  "scene": 0,
  "scenes": [
    {
      "name": "OSG_Scene",
      "nodes": [
        0
      ]
    }
  ],
  "textures": [
    {
      "sampler": 0,
      "source": 0
    }
  ]
}

